# xmcd
# 
# Track frame offsets:
#   150
#   15461
#   35637
#   50640
#   67574
#   78296
#   86417
#   104044
#   117535
#   137279
# 
# Disc length: 2078 seconds
# 
# Revision: 1
# Processed by: cddbd v1.5.1PL2 Copyright (c) Steve Scherf et al.
# Submitted via: VOLTOCDX V1.0.24 
# 
DISCID=78081c0a
DTITLE=Grandill - Grandill
DYEAR=2005
DGENRE=blues
TTITLE0=She Said To Me
TTITLE1=Walking By Myself
TTITLE2=My Old Mama
TTITLE3=Gleaning As a Butterfly
TTITLE4=Nobody Knows You When You're Down and Out
TTITLE5=Little Thing For Daddy
TTITLE6=Boom Boom Boom
TTITLE7=Slide For Jam
TTITLE8=La Mer
TTITLE9=Je T'aime Tant
EXTD=
EXTT0=
EXTT1=
EXTT2=
EXTT3=
EXTT4=
EXTT5=
EXTT6=
EXTT7=
EXTT8=
EXTT9=
PLAYORDER=
